<svg width="640" height="640" viewBox="0 0 640 640" fill="none" xmlns="http://www.w3.org/2000/svg">
<circle cx="320" cy="320" r="304" fill="white" stroke="#FF7383" stroke-width="32"/>
<g opacity="0.2">
<path d="M320 378.125C289.75 378.125 239.732 377.785 182.192 344.565C124.649 311.341 106.03 269.72 100.075 248.417C99.5406 246.491 99.3954 244.478 99.6478 242.495C99.9002 240.513 100.545 238.6 101.545 236.87C102.545 235.139 103.879 233.625 105.471 232.416C107.062 231.207 108.878 230.327 110.814 229.828C124.77 226.251 148.868 223.018 179.871 230.373C167.294 188.314 173.717 155.678 179.086 139.154C180.251 135.594 182.694 132.592 185.942 130.728C189.191 128.863 193.015 128.269 196.676 129.058C218.329 133.978 238.579 143.758 255.895 157.657H255.893C248.051 179.883 244.153 203.308 244.375 226.875C244.375 336.875 320 378.125 320 378.125ZM320 378.125C350.25 378.125 400.268 377.785 457.808 344.565C515.351 311.341 533.97 269.72 539.925 248.417C540.459 246.491 540.604 244.478 540.352 242.495C540.1 240.513 539.455 238.6 538.455 236.87C537.455 235.139 536.121 233.625 534.529 232.416C532.938 231.207 531.121 230.327 529.186 229.828C515.232 226.251 491.132 223.018 460.129 230.373C472.706 188.314 466.283 155.678 460.914 139.154C459.749 135.594 457.306 132.592 454.057 130.728C450.809 128.863 446.985 128.269 443.323 129.058C421.671 133.978 401.421 143.758 384.105 157.657H384.107C391.949 179.883 395.847 203.308 395.625 226.875C395.625 336.875 320 378.125 320 378.125Z" fill="#FF7383"/>
<path d="M320 378.125C289.75 378.125 239.732 377.785 182.192 344.565C124.649 311.341 106.03 269.72 100.075 248.417C99.5406 246.491 99.3954 244.478 99.6478 242.495C99.9002 240.513 100.545 238.6 101.545 236.87C102.545 235.139 103.879 233.625 105.471 232.416C107.062 231.207 108.878 230.327 110.814 229.828C124.77 226.251 148.868 223.018 179.871 230.373C167.294 188.314 173.717 155.678 179.086 139.154C180.251 135.594 182.694 132.592 185.942 130.728C189.191 128.863 193.015 128.269 196.676 129.058C218.329 133.978 238.579 143.758 255.895 157.657H255.893C248.051 179.883 244.153 203.308 244.375 226.875C244.375 336.875 320 378.125 320 378.125ZM320 378.125C350.25 378.125 400.268 377.785 457.808 344.565C515.351 311.341 533.97 269.72 539.925 248.417C540.459 246.491 540.604 244.478 540.352 242.495C540.1 240.513 539.455 238.6 538.455 236.87C537.455 235.139 536.121 233.625 534.529 232.416C532.938 231.207 531.121 230.327 529.186 229.828C515.232 226.251 491.132 223.018 460.129 230.373C472.706 188.314 466.283 155.678 460.914 139.154C459.749 135.594 457.306 132.592 454.057 130.728C450.809 128.863 446.985 128.269 443.323 129.058C421.671 133.978 401.421 143.758 384.105 157.657H384.107C391.949 179.883 395.847 203.308 395.625 226.875C395.625 336.875 320 378.125 320 378.125Z" stroke="#FF7383"/>
</g>
<path d="M551.556 229.314C549.562 225.829 546.886 222.781 543.688 220.353C540.491 217.924 536.837 216.164 532.945 215.178C515.669 210.913 497.776 209.727 480.089 211.676C484.744 185.939 483.102 159.457 475.304 134.492C473.007 127.373 468.149 121.36 461.671 117.62C455.193 113.88 447.557 112.679 440.244 114.25C422.713 118.126 405.983 124.998 390.789 134.563C378.658 109.026 360.612 86.7498 338.148 69.5826C332.92 65.6388 326.549 63.5055 320 63.5055C313.451 63.5055 307.08 65.6388 301.852 69.5826C279.389 86.7501 261.343 109.026 249.211 134.563C234.018 124.999 217.289 118.127 199.76 114.25C192.446 112.681 184.81 113.882 178.332 117.622C171.853 121.362 166.994 127.375 164.697 134.493C156.899 159.458 155.257 185.938 159.913 211.674C142.225 209.725 124.331 210.911 107.055 215.18C103.169 216.179 99.5217 217.944 96.3262 220.371C93.1307 222.798 90.4514 225.838 88.4452 229.313C86.439 232.788 85.1462 236.629 84.6425 240.609C84.1387 244.59 84.4342 248.632 85.5115 252.497C92.2006 276.419 112.674 321.892 174.63 357.665C236.202 393.21 290.614 393.25 319.898 393.25L319.985 393.254H320.015L320.102 393.25C349.388 393.25 403.8 393.21 465.37 357.663C527.326 321.892 547.801 276.419 554.489 252.497C555.581 248.633 555.885 244.589 555.381 240.606C554.877 236.623 553.576 232.782 551.556 229.312V229.314ZM446.532 143.835C451.71 159.781 456.779 188.304 445.965 225.062C445.734 225.69 445.545 226.332 445.4 226.985C440.946 241.227 434.894 254.919 427.359 267.799C418.203 283.575 407.165 298.18 394.489 311.295C404.069 288.729 410.75 260.831 410.75 226.875C410.886 205.4 407.9 184.019 401.887 163.403C415.371 154.068 430.53 147.424 446.532 143.835ZM320.053 93.8261C338.228 107.391 380.5 147.512 380.5 226.875C380.5 307.306 337.598 347.104 320 360.045C302.402 347.104 259.5 307.306 259.5 226.875C259.5 147.512 301.773 107.391 320.053 93.8261ZM193.466 143.839C209.469 147.425 224.628 154.068 238.111 163.403C232.099 184.019 229.114 205.4 229.25 226.875C229.25 260.831 235.932 288.729 245.509 311.295C232.834 298.18 221.797 283.574 212.641 267.799C205.098 254.904 199.041 241.195 194.585 226.936C194.449 226.338 194.277 225.75 194.069 225.173C183.211 188.363 188.284 159.798 193.466 143.839ZM114.569 244.481C132.147 240.264 150.428 239.891 168.164 243.388C173.007 257.109 179.128 270.346 186.444 282.924C202.727 310.885 224.057 335.581 249.351 355.759C228.447 350.49 208.385 342.312 189.755 331.464C137.095 301.059 120.093 263.833 114.569 244.477V244.481ZM450.245 331.464C431.616 342.312 411.555 350.49 390.651 355.759C415.944 335.581 437.273 310.885 453.556 282.924C460.873 270.346 466.994 257.11 471.838 243.388C489.545 239.919 507.787 240.248 525.358 244.352C519.907 263.835 502.905 301.061 450.243 331.464H450.245Z" fill="#FF7383"/>
<path d="M206.624 446.53L197.934 438.39C195.844 439.05 189.794 439.38 186.714 439.38H127.424C122.804 439.38 118.184 438.94 114.004 438.28V453.57C119.174 453.13 122.804 452.8 127.424 452.8H184.734C181.874 458.19 173.294 467.87 164.494 473.26L175.934 482.39C186.714 474.69 197.164 460.83 202.334 452.25C203.324 450.6 205.414 447.96 206.624 446.53ZM161.744 461.38H145.794C146.344 464.9 146.564 467.87 146.564 471.28C146.564 489.32 143.924 500.98 129.954 510.66C125.884 513.63 121.924 515.5 118.404 516.71L131.274 527.16C161.194 511.1 161.744 488.66 161.744 461.38ZM228.126 446.31V462.26C231.866 462.04 236.926 461.82 241.106 461.82H286.536C290.386 461.82 295.556 462.15 298.746 462.26V446.31C295.666 446.64 290.936 446.97 286.536 446.97H240.996C237.256 446.97 232.086 446.75 228.126 446.31ZM218.886 500.1V516.93C222.956 516.6 228.346 516.27 232.636 516.27H295.776C299.076 516.27 304.026 516.49 307.876 516.93V500.1C304.136 500.54 299.516 500.76 295.776 500.76H232.636C228.346 500.76 223.176 500.43 218.886 500.1ZM340.876 516.6L351.326 525.62C353.856 523.97 356.276 523.2 357.816 522.65C383.776 514.18 406.546 501.09 421.616 483.05L413.806 470.62C399.726 487.78 375.196 501.86 357.266 507.03V449.83C357.266 445.54 357.706 441.58 358.366 437.29H341.096C341.756 440.48 342.306 445.65 342.306 449.83V509.45C342.306 511.98 342.196 513.85 340.876 516.6ZM487.946 432.78H471.776C472.216 435.42 472.546 440.48 472.546 442.9C472.546 446.2 472.436 449.39 472.326 452.47H456.596C452.416 452.47 446.696 452.14 442.076 451.7V466.11C446.806 465.67 452.856 465.67 456.596 465.67H471.116C468.696 482.39 463.196 494.71 452.966 504.83C448.566 509.34 443.066 513.08 438.556 515.61L451.316 525.95C471.006 511.98 481.456 494.71 485.526 465.67H510.276C510.276 477.55 508.846 499.55 505.656 506.48C504.446 509.12 502.906 510.33 499.386 510.33C495.096 510.33 489.376 509.78 483.986 508.79L485.746 523.53C491.026 523.97 497.626 524.41 503.896 524.41C511.486 524.41 515.666 521.55 518.086 515.94C522.816 504.72 524.136 474.03 524.576 462.15C524.576 460.94 525.016 458.08 525.346 456.32L515.776 451.7C513.136 452.14 510.276 452.47 507.526 452.47H486.846C487.066 449.28 487.176 445.98 487.286 442.57C487.396 439.93 487.616 435.31 487.946 432.78Z" fill="#FF7383"/>
</svg>
